<?xml version="1.0" standalone="no"?>
<!DOCTYPE svg PUBLIC "-//W3C//DTD SVG 20010904//EN"
 "http://www.w3.org/TR/2001/REC-SVG-20010904/DTD/svg10.dtd">
<svg version="1.0" xmlns="http://www.w3.org/2000/svg"
 width="1280.000000pt" height="1266.000000pt" viewBox="0 0 1280.000000 1266.000000"
 preserveAspectRatio="xMidYMid meet">
<g transform="translate(0.000000,1266.000000) scale(0.100000,-0.100000)"
fill="#000000" stroke="none">
<path d="M2533 12650 c-13 -5 -23 -18 -23 -28 0 -35 154 -80 445 -132 210 -37
272 -53 353 -90 121 -56 131 -68 372 -420 157 -230 226 -320 349 -455 125
-136 171 -209 230 -358 43 -111 103 -227 118 -227 10 0 -10 107 -34 180 -44
135 -114 248 -336 544 -49 65 -115 166 -146 225 -155 291 -321 469 -515 555
-54 24 -327 112 -511 164 -131 38 -266 56 -302 42z"/>
<path d="M3460 12650 c-13 -10 -13 -13 4 -23 93 -59 115 -79 157 -142 26 -38
75 -137 109 -220 34 -82 77 -175 95 -205 35 -57 110 -138 120 -128 7 7 -68
229 -112 333 -42 99 -143 292 -181 347 -28 40 -28 40 -102 44 -44 3 -81 0 -90
-6z"/>
<path d="M2540 12442 c0 -16 81 -102 124 -131 22 -15 105 -56 183 -91 254
-111 404 -212 568 -382 119 -123 168 -183 388 -474 91 -121 230 -299 308 -395
393 -483 513 -640 637 -839 69 -110 156 -272 196 -362 27 -61 28 -57 -19 -96
-21 -18 -12 -28 37 -40 83 -21 111 -67 138 -224 22 -124 37 -156 80 -165 34
-6 36 -9 15 -29 -8 -9 -15 -29 -15 -46 0 -31 47 -128 62 -128 13 0 9 43 -7 64
-19 25 -19 46 -1 46 19 0 40 -118 33 -182 -9 -69 -34 -107 -82 -124 -37 -12
-41 -12 -75 13 -58 44 -291 281 -379 388 -46 55 -187 237 -314 405 -347 459
-462 597 -639 765 -119 113 -201 177 -388 303 -250 167 -452 259 -590 269 -72
5 -77 4 -109 -22 l-33 -28 24 -13 c12 -8 79 -32 148 -53 133 -43 200 -79 222
-119 12 -23 10 -27 -32 -64 -56 -49 -181 -150 -211 -171 -22 -16 -20 -18 262
-369 651 -811 964 -1187 1135 -1367 46 -49 84 -96 84 -105 0 -35 43 -99 128
-188 163 -173 409 -473 812 -993 370 -477 442 -564 654 -792 137 -147 141
-151 147 -122 16 74 96 138 204 163 l29 7 -19 -21 c-11 -13 -46 -40 -78 -62
-54 -36 -88 -80 -75 -94 10 -9 69 25 123 71 61 52 89 67 109 59 14 -5 14 -9 2
-32 -19 -36 -49 -61 -122 -105 -56 -34 -103 -82 -91 -94 9 -9 72 30 122 75 56
51 100 72 146 72 32 0 32 0 13 -21 -10 -12 -46 -40 -79 -62 -79 -52 -115 -87
-115 -108 0 -35 20 -29 79 25 33 30 73 62 90 70 33 17 61 21 61 8 0 -12 -48
-54 -102 -90 -45 -31 -88 -76 -88 -93 0 -17 54 13 97 51 44 41 70 49 91 28 22
-22 12 -47 -35 -92 -50 -49 -50 -59 3 -70 37 -8 59 9 81 64 8 19 20 41 25 48
16 19 38 -5 38 -41 0 -24 -13 -43 -60 -89 -33 -33 -60 -65 -60 -72 0 -20 12
-27 27 -14 19 15 45 -11 46 -46 0 -37 22 -33 74 15 36 33 47 38 59 28 23 -19
13 -40 -36 -74 -56 -39 -64 -65 -21 -65 20 0 34 -7 41 -19 14 -28 12 -66 -4
-80 -20 -17 -102 54 -265 230 -176 190 -191 204 -362 319 -173 118 -220 166
-283 288 -52 100 -156 230 -425 532 -319 357 -429 494 -883 1101 -311 415
-663 844 -921 1124 -112 121 -149 169 -302 395 -197 292 -292 401 -388 446
-53 24 -107 32 -107 15 0 -18 120 -167 262 -326 202 -226 289 -336 352 -442 7
-13 -217 124 -419 255 -111 71 -310 219 -337 249 -17 18 -17 22 3 72 28 75 46
109 157 293 103 173 149 264 139 274 -12 12 -110 -52 -156 -102 -76 -83 -143
-230 -206 -451 -3 -13 -9 -23 -13 -23 -15 1 -51 37 -75 75 -30 50 -54 70 -89
79 -34 8 -34 7 -7 -47 64 -128 187 -272 327 -385 124 -99 212 -157 529 -346
341 -204 452 -283 593 -426 128 -129 202 -237 256 -374 49 -124 49 -120 13
-155 -17 -17 -44 -38 -59 -46 -44 -23 -131 -32 -209 -23 -145 17 -273 78 -645
307 -366 226 -708 413 -906 496 -206 87 -773 280 -1105 376 -132 38 -276 83
-320 100 -197 77 -393 207 -611 407 -102 93 -124 109 -134 97 -9 -11 -9 -30 1
-85 l14 -72 69 -45 c38 -26 125 -99 195 -163 266 -246 340 -285 653 -350 210
-44 272 -65 583 -197 160 -69 372 -149 520 -198 273 -90 304 -103 540 -240
175 -101 578 -306 745 -378 348 -150 565 -163 729 -43 l49 36 53 -67 c29 -38
78 -97 109 -133 92 -106 174 -210 223 -284 l46 -69 -19 -46 c-29 -74 -68 -246
-85 -376 -18 -139 -21 -415 -5 -525 23 -160 81 -326 140 -400 l20 -25 0 40 c0
53 14 75 29 47 21 -39 13 -86 -19 -117 -36 -35 -37 -39 -5 -53 44 -20 58 -65
63 -199 4 -119 5 -123 26 -119 11 3 48 7 81 11 95 9 134 23 181 67 42 38 44
39 44 17 0 -13 7 -33 15 -43 23 -30 19 -58 -7 -56 -13 1 -33 2 -45 1 -33 -1
-30 -37 5 -55 l27 -15 -34 -1 c-19 0 -58 7 -86 16 -57 18 -115 13 -135 -11
-10 -12 -7 -34 14 -107 56 -204 79 -399 79 -688 0 -287 -26 -529 -83 -766 -24
-98 -73 -241 -104 -301 l-21 -43 -125 -4 c-155 -6 -269 -28 -385 -72 -151 -59
-437 -224 -837 -485 -141 -93 -344 -223 -450 -290 -270 -171 -406 -263 -528
-358 -112 -87 -317 -284 -302 -289 18 -6 137 40 193 74 31 18 112 79 180 135
183 150 734 526 1094 746 323 198 593 313 855 363 239 46 536 41 794 -14 38
-8 75 -12 83 -9 8 3 23 23 34 45 11 21 27 42 35 45 9 3 43 -13 82 -39 188
-127 352 -207 816 -397 107 -44 160 -72 190 -99 112 -102 211 -158 469 -263
210 -84 301 -144 448 -289 58 -58 179 -195 267 -305 167 -207 251 -305 252
-293 0 4 -12 40 -26 80 -155 430 -525 739 -1414 1183 -113 56 -261 128 -330
160 -69 31 -267 126 -440 211 -182 89 -342 161 -380 170 -79 20 -173 14 -245
-14 l-50 -20 35 -6 c19 -3 69 -10 110 -16 80 -11 170 -37 170 -49 0 -8 -148 4
-238 19 -82 14 -165 45 -202 76 l-29 25 30 47 c39 62 72 169 104 338 38 202
64 316 80 344 10 17 14 20 15 9 0 -15 30 -49 42 -49 12 0 -20 107 -56 188 -45
100 -44 116 7 120 25 2 40 10 48 23 17 33 4 49 -40 49 -22 0 -43 5 -46 10 -4
6 23 10 74 10 70 0 84 3 103 22 l22 22 -37 9 c-45 11 -46 19 -7 47 38 27 48
64 25 90 -36 40 -74 13 -60 -42 4 -16 1 -29 -9 -37 -18 -15 -55 7 -105 64 -32
36 -39 55 -21 55 5 0 16 16 24 35 15 35 29 44 41 24 15 -23 66 -32 190 -34
127 -1 175 -8 175 -25 0 -4 -16 -11 -35 -14 -36 -7 -55 -30 -55 -65 0 -17 9
-20 58 -26 89 -9 133 -24 165 -57 40 -39 25 -54 -34 -34 -24 9 -60 16 -80 16
l-36 0 13 -82 c12 -75 35 -127 60 -135 5 -1 27 22 48 52 39 54 74 85 97 85 22
0 0 -62 -36 -101 -42 -47 -45 -69 -9 -69 39 0 80 48 99 116 47 171 61 194 128
210 24 5 27 3 27 -19 0 -15 -17 -44 -43 -73 -24 -27 -46 -57 -50 -66 -9 -26
20 -23 59 7 37 28 72 32 81 10 8 -22 -21 -50 -65 -63 -42 -13 -102 -48 -102
-60 0 -4 13 -13 29 -19 16 -6 41 -29 55 -52 27 -42 46 -53 46 -26 0 19 40 35
85 35 45 0 59 26 50 95 -7 61 2 72 66 81 59 8 84 -10 70 -49 -9 -24 -16 -27
-56 -27 -42 0 -45 -2 -45 -26 0 -37 25 -74 81 -117 27 -21 49 -43 49 -48 0
-21 -71 -7 -133 26 -86 46 -112 46 -131 0 -15 -35 -47 -48 -61 -25 -11 18 -61
11 -83 -13 -42 -44 -33 -47 141 -47 90 0 190 -5 223 -10 32 -6 71 -12 87 -15
22 -4 27 -1 27 16 0 11 -9 37 -20 59 -24 47 -26 90 -5 90 8 0 44 -36 81 -80
37 -44 70 -80 74 -80 4 0 12 24 19 54 7 30 26 74 43 97 l30 42 19 -24 c16 -22
26 -24 114 -27 115 -5 130 3 121 60 -7 42 2 48 29 18 23 -25 37 -25 60 0 26
28 35 16 35 -47 0 -38 5 -59 15 -67 12 -8 -4 -11 -67 -12 -46 -1 -141 -3 -211
-5 l-128 -4 3 -25 c3 -23 8 -25 69 -30 65 -5 99 -20 99 -45 0 -9 -18 -12 -62
-11 -70 1 -136 -20 -119 -37 6 -6 11 -24 11 -39 0 -15 4 -28 8 -28 4 0 50 13
102 30 96 30 138 57 175 113 13 21 21 25 31 16 28 -23 26 -49 -5 -85 -41 -46
-39 -55 8 -32 21 10 88 33 148 49 59 17 127 41 151 55 l42 25 0 -36 c0 -20 -5
-45 -10 -55 -10 -19 -93 -50 -132 -50 -10 0 -35 -7 -55 -15 l-36 -15 27 -21
c14 -11 33 -34 41 -50 19 -37 38 -39 25 -3 -8 21 -6 33 10 59 20 32 21 33 50
19 26 -14 34 -13 89 11 77 32 91 32 91 -1 0 -19 13 -39 45 -67 25 -22 45 -47
45 -54 0 -7 33 -48 73 -91 267 -287 767 -888 1042 -1256 119 -159 120 -160
183 -184 35 -13 66 -31 69 -38 3 -8 -6 -33 -20 -56 -14 -24 -80 -146 -147
-273 -239 -448 -291 -518 -565 -760 -173 -153 -183 -163 -264 -270 -34 -44
-83 -94 -110 -112 -61 -41 -400 -155 -418 -141 -7 5 -26 50 -44 99 -17 49 -37
95 -43 102 -8 11 -134 23 -496 51 -267 20 -650 50 -851 66 -421 33 -1002 74
-1329 92 -508 29 -1955 10 -1977 -26 -12 -19 77 -85 146 -107 83 -27 259 -28
496 -4 395 40 1139 24 1655 -35 336 -39 536 -49 1450 -75 235 -7 536 -23 720
-39 l134 -11 28 -40 c36 -52 74 -170 90 -281 18 -122 15 -516 -5 -739 -9 -99
-28 -238 -43 -309 -31 -154 -30 -249 2 -293 29 -38 41 -39 64 -1 17 28 20 50
20 154 0 72 10 197 25 310 33 243 55 493 55 614 0 139 -24 313 -55 391 -5 14
5 17 67 22 72 5 138 24 371 107 92 32 137 43 208 47 69 5 98 11 122 27 68 46
24 69 -81 42 -67 -18 -138 -21 -147 -7 -3 6 74 88 170 183 291 285 467 489
626 726 106 159 153 249 255 494 41 101 105 244 142 318 76 155 126 212 277
318 50 35 133 94 185 133 248 182 414 239 692 239 141 0 249 -20 334 -62 65
-31 123 -82 106 -92 -5 -3 -104 -30 -219 -60 -297 -77 -397 -119 -493 -206
l-35 -31 71 5 c115 9 266 53 504 146 402 158 531 181 762 138 50 -9 64 -17
106 -62 27 -28 95 -121 152 -206 94 -142 200 -269 241 -291 15 -8 16 -5 4 34
-41 131 -90 229 -166 330 -94 124 -222 217 -364 264 -69 22 -98 26 -205 26
-82 0 -144 -5 -182 -15 l-57 -16 -53 41 c-69 52 -194 110 -288 133 -88 21
-273 23 -365 5 -308 -64 -643 -238 -888 -462 -43 -39 -82 -68 -86 -63 -4 5
-75 99 -157 209 -83 110 -280 364 -439 565 -364 461 -442 561 -538 687 l-77
103 77 38 c66 34 74 40 55 46 -22 7 -28 31 -14 54 7 10 16 9 45 -3 58 -24 75
-9 79 67 2 50 6 63 21 66 14 3 17 -4 17 -32 0 -20 3 -36 8 -36 18 0 54 34 71
69 31 60 45 67 73 36 l24 -26 69 108 c197 310 434 605 598 743 64 54 65 56 60
96 -6 47 13 92 61 142 42 45 80 64 131 64 55 1 65 -6 65 -49 0 -32 -11 -47
-93 -132 -110 -112 -122 -129 -181 -247 -106 -214 -201 -526 -275 -900 -49
-249 -56 -318 -56 -524 0 -181 2 -199 24 -254 25 -64 82 -133 137 -167 43 -26
126 -49 179 -49 121 0 215 81 215 184 l0 35 -50 -34 c-60 -40 -132 -57 -230
-53 l-73 3 -14 40 c-47 135 -56 327 -23 535 32 211 128 725 160 862 55 234
117 369 239 522 136 171 341 299 551 347 131 29 149 27 209 -27 32 -29 62 -69
83 -112 30 -60 33 -77 36 -173 4 -91 0 -123 -22 -210 -22 -86 -88 -264 -160
-431 -19 -44 -16 -46 25 -16 44 33 84 101 127 219 22 57 51 127 66 156 24 49
26 60 23 175 -2 135 8 176 48 198 43 23 52 9 60 -87 17 -222 -53 -507 -164
-672 -24 -34 -40 -66 -36 -69 3 -4 41 -6 83 -4 81 2 120 -9 92 -28 -8 -5 -22
-7 -30 -4 -8 4 -25 9 -36 11 -21 5 -21 3 -11 -36 10 -37 9 -43 -11 -63 l-22
-22 53 -12 c28 -6 85 -23 124 -38 40 -14 93 -26 119 -26 41 0 51 5 90 45 24
24 44 52 44 63 0 28 -37 57 -122 96 -43 19 -78 40 -78 45 0 26 54 22 150 -8
114 -37 155 -37 182 -1 35 47 12 63 -138 100 -48 12 -67 29 -54 50 7 12 20 11
87 -4 194 -43 220 -47 261 -41 45 7 49 12 29 39 -9 12 -34 20 -79 26 -80 9
-88 14 -88 46 0 31 25 32 105 4 93 -32 149 -26 139 16 -7 27 -6 28 65 14 59
-11 94 0 89 28 -4 21 -37 30 -119 31 -51 1 -72 6 -93 22 -14 11 -26 23 -26 27
0 4 24 7 53 8 28 0 82 6 120 13 88 17 91 39 10 78 -70 34 -77 59 -22 86 31 15
48 16 109 9 l72 -9 14 34 c22 51 5 98 -56 158 -138 136 -125 186 16 61 71 -64
96 -74 131 -51 l25 17 -31 19 c-33 20 -43 63 -19 87 17 17 23 15 63 -19 l35
-31 0 26 c0 14 -12 50 -26 79 -26 53 -27 82 -5 116 17 26 60 -15 92 -84 16
-35 32 -66 37 -69 10 -6 52 77 52 104 0 22 -16 35 -25 20 -11 -18 -30 -11 -48
19 -24 40 -22 44 18 37 34 -7 35 -6 35 23 l0 30 37 -25 c23 -15 45 -23 58 -20
11 3 39 6 63 6 36 0 42 3 42 21 0 28 16 57 61 106 61 67 57 94 -42 270 -13 23
-20 45 -16 49 13 13 66 -48 113 -129 28 -48 57 -85 77 -97 l32 -20 7 96 c8
106 26 150 71 172 15 7 27 18 27 23 0 6 -16 48 -35 95 -55 133 -46 149 31 52
l49 -63 6 80 c10 136 22 149 79 90 19 -19 37 -35 41 -35 4 0 13 17 19 38 12
36 46 82 61 82 4 0 10 -22 14 -50 7 -53 23 -63 65 -40 17 9 18 7 13 -23 -3
-22 1 -46 12 -67 11 -21 15 -45 12 -66 -5 -32 -5 -32 23 -22 35 12 64 -2 84
-40 31 -60 50 -221 51 -422 0 -278 -19 -393 -160 -940 -90 -348 -121 -497
-144 -675 l-17 -137 -54 44 c-129 104 -129 104 -290 114 -80 5 -203 9 -275 9
-122 -1 -133 -2 -182 -28 -47 -24 -103 -80 -103 -103 0 -5 48 -5 119 0 137 11
319 -8 432 -43 85 -27 178 -89 215 -143 25 -38 29 -52 29 -120 0 -70 -2 -79
-31 -115 -17 -21 -87 -81 -155 -134 -189 -146 -223 -202 -199 -328 9 -47 11
-100 6 -163 -4 -51 -11 -151 -17 -222 -11 -147 1 -308 27 -359 18 -35 53 -77
65 -77 18 0 19 147 4 420 -14 235 -15 318 -6 405 10 103 13 111 44 143 17 18
99 79 182 135 172 116 227 168 267 252 33 70 33 75 13 152 -10 39 -13 78 -9
118 14 140 121 613 219 970 99 364 135 569 135 781 0 192 76 407 218 620 l60
90 13 124 c47 491 -115 944 -478 1340 l-69 75 -12 87 c-27 192 -103 359 -228
499 l-44 50 0 88 c0 86 -1 88 -27 100 -16 7 -73 39 -128 71 -114 66 -183 90
-266 90 -52 0 -59 3 -76 28 -10 16 -55 61 -99 100 -69 60 -84 79 -99 124 -65
203 -221 319 -583 434 -333 106 -308 95 -343 147 -100 152 -328 265 -620 308
-108 16 -407 16 -529 0 -130 -16 -275 -47 -370 -77 -63 -20 -80 -29 -80 -44 0
-29 17 -33 64 -15 48 18 66 14 66 -15 0 -15 -12 -19 -79 -25 -55 -5 -86 -3
-102 5 l-23 13 27 14 c37 19 37 47 0 39 -16 -3 -83 -11 -151 -17 -123 -12
-192 -10 -652 22 -212 14 -378 -1 -516 -46 -69 -24 -71 -30 -8 -32 55 -2 84
-15 84 -37 0 -8 -43 -19 -117 -30 -235 -37 -408 -81 -531 -137 -69 -31 -172
-101 -212 -143 -13 -15 -60 -45 -104 -67 -44 -22 -134 -79 -201 -128 -66 -48
-139 -101 -162 -116 -33 -21 -43 -34 -43 -54 0 -29 -17 -59 -60 -106 -15 -16
-31 -39 -34 -50 -5 -13 -41 -36 -103 -65 -145 -67 -312 -178 -510 -337 -15
-12 -31 -49 -48 -108 -14 -49 -41 -121 -60 -160 -37 -78 -94 -141 -103 -115
-13 38 -249 502 -327 645 -180 330 -266 468 -334 540 -36 39 -113 130 -171
204 -58 74 -143 182 -190 240 -486 607 -472 589 -551 725 -19 32 -62 84 -97
115 -133 117 -272 196 -633 354 -119 52 -239 107 -268 121 -28 15 -51 22 -51
18z m7329 -1203 c50 -9 72 -19 94 -41 16 -16 28 -31 25 -33 -3 -3 -256 45
-328 63 -23 6 -23 7 10 13 57 11 129 10 199 -2z m-145 -75 c69 -23 77 -29 62
-39 -26 -19 -95 -27 -151 -16 -84 16 -226 53 -221 58 2 3 22 11 43 19 55 21
170 11 267 -22z m-2046 -169 c51 -8 107 -21 125 -28 l32 -14 -30 -15 c-52 -27
-98 -29 -241 -12 -77 9 -171 14 -211 12 -76 -4 -81 2 -30 29 82 43 203 53 355
28z m2201 3 c28 -6 51 -15 51 -19 0 -10 -58 -29 -91 -29 -45 0 -79 17 -79 40
0 16 7 20 34 20 19 0 57 -5 85 -12z m-2659 -62 c0 -6 -130 -79 -165 -93 -16
-6 -54 -12 -84 -12 -44 -1 -52 1 -42 13 20 24 88 67 128 82 34 12 163 20 163
10z m1743 -146 c45 -13 50 -42 10 -62 -16 -8 -27 -21 -27 -30 1 -15 -1 -15
-20 -4 -11 8 -36 16 -55 20 -68 12 -95 65 -43 85 29 11 73 8 135 -9z m-5735
-109 c10 -6 -9 -32 -75 -101 -106 -112 -161 -150 -217 -150 -80 0 -78 11 23
107 102 96 133 119 189 139 44 15 62 17 80 5z m177 -120 c-202 -194 -299 -261
-377 -261 l-39 0 22 33 c37 52 131 147 177 179 57 39 136 67 192 68 44 0 44 0
25 -19z m109 -64 l34 -24 -49 -65 c-63 -85 -154 -159 -254 -208 -130 -63 -145
-61 -119 15 16 49 56 84 174 155 53 31 110 75 134 102 22 26 42 47 43 48 1 0
18 -11 37 -23z m2894 -39 c-2 -18 -11 -24 -35 -26 -31 -3 -31 -2 -20 22 16 34
60 37 55 4z m271 -54 c24 -22 -8 -79 -54 -95 -44 -16 -40 -33 8 -37 32 -3 37
-7 37 -28 0 -24 -1 -24 -67 -18 -88 8 -126 20 -164 52 -30 25 -32 25 -45 7 -8
-10 -14 -32 -14 -47 0 -30 0 -30 -95 -64 -51 -18 -125 -84 -243 -218 -29 -33
-54 -57 -56 -55 -8 7 32 107 64 165 67 115 212 240 323 278 67 22 144 21 190
-4 48 -26 61 -18 53 32 -4 22 -4 44 0 49 7 12 43 2 63 -17z m296 -16 c85 -19
117 -36 110 -58 -5 -15 0 -22 16 -29 22 -8 21 -9 -14 -20 -24 -8 -85 -11 -177
-9 l-140 3 0 27 c0 15 -4 30 -10 33 -17 11 -11 34 13 46 53 29 95 30 202 7z
m-3297 -8 c12 -12 22 -23 22 -27 0 -13 -147 -167 -204 -212 -78 -62 -170 -109
-231 -118 l-48 -6 19 34 c32 56 152 166 284 259 69 48 128 89 131 89 3 1 15
-8 27 -19z m5242 -35 c0 -20 -5 -25 -25 -25 -20 0 -25 5 -25 25 0 20 5 25 25
25 20 0 25 -5 25 -25z m368 -7 c45 -6 82 -14 82 -18 0 -14 -47 -48 -82 -59
-73 -24 -204 -12 -267 23 l-24 13 25 17 c51 34 141 42 266 24z m1381 -56 c56
-45 80 -54 117 -47 38 7 45 24 14 32 -11 3 -20 12 -20 19 0 18 5 18 52 -3 39
-18 39 -18 32 -63 -4 -25 -7 -60 -7 -77 0 -18 -4 -33 -9 -33 -22 0 -170 64
-211 91 -44 29 -87 83 -87 109 0 23 79 4 119 -28z m-3893 -23 c25 -7 43 -17
41 -23 -4 -11 -127 -19 -127 -8 0 6 31 42 37 42 2 0 24 -5 49 -11z m-3010
-101 c-137 -153 -284 -251 -396 -264 l-55 -6 95 96 c160 163 272 234 368 236
l44 0 -56 -62z m5436 20 c22 -11 48 -60 48 -89 0 -21 3 -21 78 -15 42 4 132
16 200 27 67 10 125 19 127 19 3 0 5 -34 5 -75 0 -65 -2 -75 -17 -75 -103 1
-735 48 -742 56 -3 3 5 14 18 25 20 16 40 19 142 19 131 0 147 9 89 52 -28 20
-39 55 -24 71 8 7 49 -1 76 -15z m-5312 -72 c0 -16 -114 -137 -174 -185 -60
-47 -238 -151 -260 -151 -10 0 13 40 46 80 40 51 107 100 254 185 135 78 134
78 134 71z m3598 -83 c26 3 56 9 67 13 11 4 -18 -21 -65 -55 -149 -109 -278
-159 -360 -142 l-35 7 31 30 c19 17 65 41 113 58 73 25 93 41 75 58 -3 4 -24
-2 -47 -12 -48 -22 -67 -13 -67 30 0 33 14 40 85 40 30 0 56 4 60 9 3 5 26 -2
51 -16 37 -21 54 -25 92 -20z m797 2 c0 -14 -9 -21 -32 -26 -36 -7 -40 0 -20
31 15 26 52 23 52 -5z m-4266 -41 c24 -21 -27 -74 -146 -154 -60 -40 -133 -96
-163 -125 -66 -62 -92 -77 -136 -77 -52 0 -57 9 -33 50 39 66 91 112 234 207
77 51 148 102 158 113 16 18 23 19 45 10 15 -7 33 -17 41 -24z m7803 -31 c46
-27 92 -53 103 -57 19 -7 19 -8 3 -20 -10 -7 -18 -23 -18 -35 0 -11 -2 -21 -5
-21 -15 0 -75 37 -134 83 -36 27 -84 59 -108 70 -23 11 -39 25 -36 30 3 5 29
7 59 5 41 -4 71 -16 136 -55z m-2484 -26 c21 -14 13 -27 -25 -44 -48 -19 -107
-12 -139 18 -13 12 -24 25 -24 28 0 9 173 7 188 -2z m240 -9 c-3 -21 -8 -23
-76 -24 -86 -1 -83 13 5 32 78 17 75 17 71 -8z m-5464 -50 c25 -36 18 -52 -33
-76 -27 -12 -84 -54 -127 -93 -122 -110 -179 -149 -241 -169 -32 -10 -60 -16
-61 -15 -7 7 58 91 105 137 26 25 102 83 168 128 66 45 127 89 135 96 20 20
37 17 54 -8z m6349 11 c12 -6 52 -43 89 -81 l66 -69 -23 -15 c-18 -12 -31 -13
-57 -6 -47 14 -190 84 -183 90 2 3 22 8 42 11 39 7 46 22 28 64 -8 20 6 22 38
6z m384 -61 c24 -22 31 -48 13 -48 -6 0 -28 9 -50 20 -37 19 -60 45 -60 69 0
15 68 -14 97 -41z m-6653 -61 c18 -13 18 -15 -3 -62 -52 -118 -329 -318 -420
-303 -20 3 -20 4 -2 44 26 57 89 115 200 182 52 31 118 78 145 104 28 26 54
47 57 48 3 0 13 -6 23 -13z m1964 -106 c5 -34 -25 -61 -69 -61 -43 0 -56 20
-39 64 5 15 10 41 10 58 l0 30 48 -34 c28 -20 48 -44 50 -57z m4671 -17 c25
-31 29 -69 7 -61 -8 3 -32 11 -53 16 -59 17 -65 23 -47 49 22 31 67 29 93 -4z
m-6513 -53 c-24 -46 -114 -138 -180 -186 -34 -24 -104 -64 -156 -90 -88 -42
-95 -44 -98 -26 -8 50 43 102 181 186 43 26 100 69 125 96 43 44 51 48 95 48
l48 1 -15 -29z m5564 16 c8 0 48 4 88 8 l72 8 0 -53 c0 -41 -3 -51 -14 -47 -8
3 -43 11 -77 17 -74 14 -114 32 -129 60 -10 19 -9 20 17 13 15 -4 35 -7 43 -6z
m-3194 -73 c-7 -27 -60 -64 -92 -64 -11 0 -29 6 -40 14 -19 14 -19 15 2 43 12
16 44 37 75 49 53 20 54 20 57 1 2 -10 1 -30 -2 -43z m4371 -26 c55 -29 65
-32 92 -21 28 10 31 9 31 -8 0 -20 -22 -33 -72 -43 -18 -4 -30 -15 -34 -30
l-6 -24 -35 22 c-76 47 -103 76 -103 113 0 35 1 35 33 29 17 -3 60 -20 94 -38z
m-6617 -27 l35 -38 -35 -21 c-19 -11 -87 -66 -150 -122 -132 -116 -210 -160
-282 -160 -57 0 -59 9 -19 63 35 46 55 62 195 157 66 45 122 92 141 117 40 55
68 56 115 4z m5360 14 c43 -22 40 -51 -7 -64 -68 -19 -279 -8 -302 15 -8 8 25
26 84 46 64 22 186 23 225 3z m193 -26 c37 -11 67 -21 67 -22 -2 -21 -29 -77
-34 -68 -4 6 -33 18 -64 27 -62 18 -102 47 -102 75 0 22 24 19 133 -12z
m-3560 -65 c3 -3 3 -12 0 -20 -4 -10 -25 -14 -79 -14 -74 0 -99 14 -46 26 15
3 32 7 37 9 18 6 81 5 88 -1z m957 -11 c-1 -9 -122 -87 -238 -154 -93 -54 -83
-75 15 -31 91 41 106 44 139 32 27 -11 27 -10 11 8 -9 10 -17 23 -17 28 0 11
78 44 104 44 17 0 17 -2 2 -25 -9 -13 -16 -33 -16 -45 0 -16 7 -20 38 -20 35
-1 32 -3 -43 -34 -44 -18 -179 -79 -299 -135 -213 -100 -386 -174 -392 -168
-7 7 36 84 58 105 14 13 61 38 104 57 44 19 79 40 79 47 0 7 -17 15 -38 19
-20 3 -40 8 -43 12 -12 12 9 47 32 53 35 9 30 18 -27 44 -50 24 -69 44 -69 73
0 23 170 52 216 37 38 -13 45 -35 14 -45 -11 -3 -20 -11 -20 -16 0 -18 62 1
155 47 112 57 236 92 235 67z m-2757 -150 c163 -179 182 -202 171 -213 -161
-147 -294 -249 -384 -295 -91 -46 -106 -49 -114 -28 -3 10 -9 23 -12 30 -9 20
81 107 191 183 112 77 195 149 195 168 0 19 -67 14 -110 -8 -21 -11 -82 -58
-134 -105 -108 -96 -140 -115 -190 -115 -36 0 -86 18 -86 30 0 15 90 89 210
173 124 85 220 170 207 183 -3 4 -26 3 -50 0 -49 -8 -100 -41 -213 -140 -81
-71 -132 -99 -196 -111 l-38 -7 11 30 c18 53 77 110 193 185 99 66 196 154
196 178 0 24 29 -3 153 -138z m1987 107 c31 -31 25 -68 -17 -107 -28 -27 -43
-34 -64 -31 -23 4 -37 -5 -78 -47 -49 -50 -99 -75 -150 -75 -31 0 -26 14 21
55 l43 36 -17 30 c-19 33 -19 33 17 19 39 -15 81 7 149 79 33 33 63 61 68 61
4 0 17 -9 28 -20z m899 -17 c-17 -20 -49 -16 -49 5 0 27 9 32 36 20 18 -9 21
-14 13 -25z m4633 -63 c21 -26 25 -78 6 -63 -7 5 -34 17 -60 27 -45 17 -64 38
-52 58 11 17 87 1 106 -22z m-6001 4 c35 -17 59 -67 59 -119 0 -34 -1 -35 -39
-35 -32 0 -49 -8 -86 -40 -25 -22 -54 -40 -64 -40 -10 0 -24 -12 -31 -26 -8
-14 -50 -58 -94 -97 -92 -82 -124 -117 -148 -161 -23 -42 -22 -46 10 -46 22 0
34 9 53 38 28 43 64 54 74 23 10 -31 -22 -80 -72 -109 -80 -48 -123 -82 -143
-114 l-19 -32 -12 30 c-17 43 -24 191 -10 208 7 8 26 18 42 21 31 7 39 31 17
54 -14 14 27 56 137 141 53 40 65 57 116 161 33 66 69 126 85 138 32 25 83 27
125 5z m5335 -15 c67 -63 46 -150 -25 -100 -16 12 -40 20 -53 19 -19 -3 -24 2
-26 26 -2 15 2 42 9 58 11 26 16 29 43 24 16 -4 40 -16 52 -27z m-2162 -18
c65 -11 120 -21 122 -23 2 -2 -2 -20 -9 -39 -10 -30 -16 -35 -32 -28 -37 14
-139 9 -195 -11 -73 -26 -74 -25 -93 15 -12 26 -23 35 -41 35 -13 0 -27 -6
-29 -12 -10 -24 -7 20 3 46 7 19 18 26 47 29 80 8 112 6 227 -12z m2463 -32
c110 -39 236 -103 272 -140 17 -17 34 -51 45 -93 14 -49 26 -73 50 -93 l31
-26 -46 5 c-65 7 -124 51 -220 164 -54 63 -88 94 -102 94 -39 0 -104 40 -131
80 -24 37 -25 40 -7 40 11 0 59 -14 108 -31z m-1929 -6 c11 -10 22 -27 24 -38
3 -22 -20 -27 -179 -40 l-93 -7 -10 26 c-5 15 -12 37 -16 50 l-6 23 130 2
c111 1 132 -1 150 -16z m-2308 -72 c0 -21 -53 -70 -97 -91 -34 -16 -74 -24
-135 -28 -49 -2 -88 -2 -88 2 0 10 137 96 178 111 42 16 142 20 142 6z m2359
-105 c7 -8 10 -19 7 -25 -15 -23 -126 -6 -126 19 0 30 90 34 119 6z m-1259
-67 l45 -20 -24 -20 c-57 -47 -113 -53 -476 -54 -335 -1 -342 -2 -445 -28 -92
-24 -309 -92 -380 -119 l-25 -10 28 -22 c27 -22 27 -23 9 -39 -23 -21 -45 -14
-62 18 -7 14 -24 25 -39 27 -24 3 -21 7 39 52 205 153 501 228 735 185 55 -11
73 -9 156 11 120 30 195 30 243 2 29 -17 36 -18 36 -7 0 8 9 24 21 36 24 24
64 21 139 -12z m-3760 -14 c6 -7 35 -27 64 -43 120 -68 149 -121 74 -133 -39
-6 -87 -40 -238 -168 -113 -96 -195 -141 -256 -141 -24 0 -44 4 -44 8 0 13 53
83 86 114 16 14 72 54 124 88 103 67 173 129 196 172 21 40 18 48 -14 39 -58
-17 -110 -52 -209 -139 -114 -101 -169 -137 -227 -148 l-39 -7 32 47 c40 57
98 104 244 195 61 39 128 84 147 101 40 34 43 35 60 15z m1761 -3 c-5 -9 -34
-41 -64 -69 -56 -53 -120 -82 -154 -69 -15 6 -7 17 47 67 71 65 110 88 153 89
23 0 26 -3 18 -18z m4953 -103 c41 -13 76 -27 76 -32 0 -4 -15 -15 -34 -24
-33 -15 -35 -15 -108 21 -40 20 -87 36 -103 36 l-30 1 22 18 c26 22 57 18 177
-20z m-5624 -4 c0 -20 -5 -25 -25 -25 -20 0 -25 5 -25 25 0 20 5 25 25 25 20
0 25 -5 25 -25z m280 6 c0 -23 -25 -51 -46 -51 -20 0 -54 19 -54 30 0 19 33
40 66 40 27 0 34 -4 34 -19z m6022 -79 l56 -27 -28 -32 -29 -32 -25 34 c-19
24 -36 35 -59 37 l-32 3 23 23 c27 27 24 27 94 -6z m-4632 -9 c-1 -21 -21 -35
-60 -40 -44 -6 -46 -3 -17 35 10 13 77 17 77 5z m-2560 -63 c0 -25 -176 -192
-262 -247 -86 -56 -195 -109 -204 -100 -10 10 33 71 80 115 24 22 89 69 145
106 94 61 191 146 191 167 0 5 11 2 25 -7 14 -9 25 -24 25 -34z m4881 10 c45
-13 96 -47 122 -82 27 -37 15 -46 -29 -22 -28 15 -38 16 -41 6 -4 -9 -12 -6
-29 11 -15 15 -46 29 -83 37 -51 11 -101 38 -101 55 0 9 125 5 161 -5z m-121
-87 c5 -5 -29 -33 -39 -33 -18 1 -33 20 -27 35 5 13 13 15 34 10 15 -4 29 -9
32 -12z m-4680 -68 c0 -50 -43 -93 -142 -143 -52 -26 -114 -69 -162 -111 -81
-73 -120 -90 -158 -70 -22 12 -20 14 68 98 49 47 123 109 164 137 70 48 205
123 223 124 4 0 7 -16 7 -35z m4624 -5 c85 -22 157 -57 208 -102 l33 -29 -60
6 c-110 12 -329 45 -450 68 -130 25 -132 29 -30 58 83 24 204 24 299 -1z
m1642 -16 c34 -18 84 -78 73 -88 -2 -2 -30 0 -61 6 -38 7 -68 7 -86 0 -27 -9
-31 -7 -66 41 -29 39 -34 52 -24 59 22 15 121 3 164 -18z m-6150 -116 c10 -16
-218 -234 -291 -277 -43 -26 -72 -36 -115 -39 -103 -7 -102 2 5 111 104 106
182 168 248 197 48 21 142 26 153 8z m54 -133 c-28 -74 -75 -126 -174 -194
-53 -37 -239 -132 -245 -125 -6 5 66 94 108 132 37 34 299 212 313 212 4 0 3
-11 -2 -25z m80 -80 c0 -4 -7 -20 -16 -38 -26 -51 -82 -115 -138 -157 -49 -37
-266 -155 -266 -144 0 3 9 23 21 45 45 88 136 165 301 253 83 45 98 51 98 41z
m7240 -60 c13 -15 18 -101 6 -112 -4 -4 -15 -2 -24 4 -13 8 -17 25 -18 67 0
57 11 71 36 41z m-2581 -55 c87 -16 150 -55 127 -77 -14 -14 -115 -20 -186
-12 -98 12 -180 30 -180 40 0 14 50 42 88 50 55 10 94 10 151 -1z m-4656 -80
c-45 -44 -114 -101 -153 -126 -71 -46 -179 -98 -187 -91 -7 8 189 207 234 238
54 37 107 57 153 58 l35 0 -82 -79z m5088 49 c16 -17 29 -35 29 -41 0 -5 -16
-16 -35 -24 -19 -8 -35 -20 -35 -26 0 -7 -10 -3 -21 9 -18 18 -21 28 -15 67 6
37 11 46 28 46 11 0 33 -14 49 -31z m-3262 -25 c-27 -30 -86 -59 -141 -68 -31
-6 -38 -4 -38 9 0 30 45 63 96 70 27 3 56 8 64 9 40 9 43 5 19 -20z m241 -27
c0 -14 -21 -44 -55 -77 -30 -30 -55 -58 -55 -62 0 -19 46 -5 135 42 73 38 106
50 140 50 25 0 45 -4 45 -8 0 -4 -15 -23 -33 -40 -35 -34 -81 -52 -131 -52
-21 0 -43 -14 -82 -50 -55 -52 -142 -100 -182 -100 -19 0 -21 3 -12 19 29 54
-8 55 -62 1 -29 -28 -38 -45 -33 -59 5 -18 -1 -19 -103 -22 -84 -3 -114 -8
-137 -23 -27 -18 -28 -18 -20 0 5 11 10 39 13 64 l4 45 153 97 c166 105 265
159 347 187 60 21 68 19 68 -12z m-1928 -44 c-120 -144 -286 -257 -406 -278
l-38 -6 62 70 c142 158 292 259 388 261 l34 0 -40 -47z m132 -79 l39 -44 -26
-38 c-32 -49 -106 -124 -171 -172 -58 -43 -236 -152 -236 -144 0 2 9 21 19 42
25 48 82 102 201 189 52 38 101 77 109 86 46 56 -69 -2 -174 -88 -44 -36 -99
-76 -121 -89 -51 -29 -104 -48 -104 -37 0 15 57 86 101 127 60 54 302 216 319
213 3 0 22 -21 44 -45z m1226 -71 c0 -28 -31 -53 -67 -53 -28 0 -33 4 -33 23
0 33 19 47 62 47 29 0 38 -4 38 -17z m1085 -25 c-17 -57 -56 -93 -113 -104
-28 -6 -32 -4 -32 14 0 11 12 29 27 40 19 14 27 28 25 46 -2 25 0 26 49 26 48
0 50 -1 44 -22z m-2224 -92 c-12 -18 -56 -57 -99 -87 -42 -29 -106 -78 -142
-109 -69 -60 -95 -77 -141 -90 -23 -7 -29 -5 -35 12 -10 31 25 69 95 104 44
22 73 45 99 79 45 60 114 110 184 135 63 22 73 11 39 -44z m2 -156 c-134 -129
-262 -210 -331 -210 -24 0 -20 7 53 81 140 142 260 219 340 218 29 0 26 -4
-62 -89z m1287 19 c0 -32 -53 -79 -89 -79 -36 0 -37 5 -12 44 35 52 101 75
101 35z m-310 -39 c12 -16 24 -45 27 -64 5 -31 3 -34 -27 -45 -18 -6 -46 -11
-61 -11 -37 0 -39 30 -4 72 14 16 25 40 25 54 0 32 14 30 40 -6z m1008 18 c22
-22 12 -37 -48 -69 -50 -26 -71 -46 -115 -109 -72 -103 -111 -139 -164 -153
-41 -11 -47 -17 -73 -73 -31 -66 -60 -98 -96 -107 -18 -4 -25 0 -33 19 -16 43
-11 132 10 172 21 39 93 113 151 153 40 28 330 178 346 179 5 0 15 -5 22 -12z
m-1868 -17 c0 -21 -155 -172 -213 -209 -69 -42 -166 -86 -174 -78 -9 9 88 115
153 167 34 27 100 67 146 89 95 45 88 43 88 31z m100 -84 c0 -17 -159 -171
-226 -220 -58 -41 -150 -87 -177 -87 -17 0 -17 1 0 30 29 50 112 124 233 209
111 78 170 101 170 68z m1170 -15 c0 -29 -131 -172 -158 -172 -17 0 -23 30
-16 81 6 44 9 49 33 49 14 1 46 12 71 25 47 25 70 31 70 17z m4545 -48 c17
-35 20 -74 6 -74 -25 0 -52 38 -58 84 -6 47 -6 48 16 35 11 -8 28 -28 36 -45z
m-4765 7 c0 -21 -19 -31 -56 -31 -13 0 -24 -4 -24 -10 0 -5 -4 -10 -10 -10
-17 0 -11 20 15 45 30 31 75 34 75 6z m-898 -68 c-43 -55 -149 -154 -205 -192
-57 -38 -176 -96 -183 -88 -10 10 65 113 119 164 28 27 71 62 94 77 51 34 150
75 181 76 24 0 24 0 -6 -37z m308 -22 c0 -17 -43 -41 -72 -41 -23 0 -28 4 -28
25 0 23 3 25 50 25 28 0 50 -4 50 -9z m1550 -56 c-14 -43 -89 -111 -170 -154
-58 -31 -62 -35 -45 -47 27 -20 40 -17 77 15 38 32 71 51 90 51 14 0 -8 -54
-80 -200 -24 -50 -30 -55 -57 -53 -16 1 -49 12 -72 25 l-43 22 -42 -40 c-24
-23 -78 -65 -120 -94 -90 -61 -119 -101 -121 -168 -2 -37 -7 -50 -25 -63 -35
-24 -48 -48 -77 -135 -14 -43 -31 -86 -38 -95 -14 -19 -77 -59 -92 -59 -6 0
-10 31 -9 76 0 82 7 94 57 94 30 0 32 3 17 31 -8 14 -6 34 6 75 9 30 14 65 11
76 -4 14 4 28 27 48 17 16 41 50 53 77 76 171 82 183 114 202 41 25 88 36 100
24 15 -15 -27 -46 -61 -46 -32 0 -40 -11 -14 -21 32 -12 62 -6 78 18 8 13 86
87 173 164 87 77 180 162 208 190 40 41 51 48 58 36 5 -8 4 -29 -3 -49z
m-1760 5 c0 -18 -134 -152 -196 -196 -71 -51 -163 -94 -200 -94 l-26 0 31 39
c82 104 181 177 306 228 93 38 85 36 85 23z m5368 -82 c20 -20 15 -58 -7 -58
-25 0 -51 26 -51 51 0 22 38 27 58 7z m-5238 -27 c0 -37 -81 -178 -139 -242
-68 -74 -147 -125 -214 -138 -26 -4 -47 -7 -47 -4 0 2 7 18 16 36 26 51 83
105 169 158 44 27 96 63 115 79 l35 29 -37 1 c-40 0 -87 -31 -189 -125 -31
-28 -72 -59 -92 -68 -37 -18 -87 -23 -87 -9 0 5 44 53 98 108 104 105 175 152
273 178 77 21 99 20 99 -3z m874 -77 c23 -23 20 -46 -14 -92 -36 -50 -69 -70
-81 -51 -15 25 -9 43 26 82 32 35 39 49 36 70 -2 12 17 8 33 -9z m116 -67 c0
-23 -23 -37 -62 -37 -30 0 -38 4 -38 18 0 27 9 32 57 32 29 0 43 -4 43 -13z
m-1900 -101 c0 -75 3 -88 25 -114 20 -24 22 -31 11 -43 -7 -8 -24 -33 -37 -57
l-23 -43 37 -35 c47 -45 50 -83 8 -125 -40 -39 -86 -40 -96 -2 -8 34 -9 479 0
493 3 5 22 10 41 10 l34 0 0 -84z m5610 39 c19 -14 43 -25 53 -25 16 0 17 -3
7 -15 -18 -21 -36 -19 -74 10 -18 14 -41 25 -51 25 -14 0 -15 3 -5 15 17 21
31 19 70 -10z m-4722 -54 c-2 -20 -21 -38 -83 -78 -44 -28 -98 -64 -120 -80
-52 -36 -55 -37 -55 -20 0 26 40 67 115 117 40 27 83 62 96 78 28 34 52 25 47
-17z m2582 9 c0 -22 -45 -60 -71 -60 -26 0 -24 19 6 42 14 11 25 28 25 39 0
17 3 18 20 9 11 -6 20 -19 20 -30z m-1672 -2 c-2 -18 -11 -24 -35 -26 -31 -3
-31 -2 -20 22 16 34 60 37 55 4z m764 -81 c-32 -65 -70 -102 -154 -151 -43
-25 -46 -29 -38 -52 6 -14 10 -66 10 -115 0 -79 -2 -89 -18 -89 -35 0 -61 -29
-68 -78 -9 -61 -21 -92 -42 -108 -48 -37 -76 8 -48 79 44 117 -19 189 -82 92
-13 -21 -30 -35 -42 -35 -17 0 -19 6 -16 40 3 37 14 50 142 171 77 72 166 155
199 184 71 62 176 137 183 130 3 -2 -9 -33 -26 -68z m-227 -49 c-9 -30 -47
-98 -54 -98 -3 0 -15 7 -25 15 -39 30 -66 19 -139 -57 -41 -44 -71 -68 -74
-60 -5 12 70 124 103 154 43 38 110 68 152 68 40 0 43 -2 37 -22z m659 -30
c-36 -71 -123 -159 -193 -197 -47 -25 -61 -28 -70 -18 -8 10 -5 23 9 50 24 45
25 63 4 75 -13 7 -9 10 17 16 19 3 64 27 100 52 57 39 125 72 152 74 4 0 -5
-23 -19 -52z m-3476 -24 c-2 -27 -7 -49 -13 -49 -12 0 -19 59 -10 93 10 41 27
10 23 -44z m3802 48 c0 -18 -50 -75 -123 -139 -41 -38 -86 -81 -98 -98 -13
-16 -24 -32 -26 -34 -2 -3 -11 2 -20 11 -14 15 -14 19 5 50 47 73 47 76 21
104 l-24 26 32 -6 c27 -6 37 -2 71 28 21 20 52 42 68 51 31 16 94 21 94 7z
m-696 -289 c-37 -49 -76 -99 -88 -111 -23 -27 -104 -77 -111 -70 -8 7 59 138
95 186 33 46 95 81 143 82 28 0 27 -1 -39 -87z m366 -4 c0 -29 -33 -75 -109
-153 -121 -124 -141 -169 -106 -236 14 -28 14 -29 -19 -49 -36 -23 -71 -27
-81 -11 -12 19 -33 -8 -51 -63 -30 -94 -43 -115 -81 -128 -65 -21 -65 16 0
146 56 113 137 219 327 428 82 90 97 102 108 89 6 -9 12 -19 12 -23z m-252 -2
l30 -12 -19 -54 c-10 -29 -36 -76 -58 -105 -67 -86 -125 -162 -139 -182 -11
-17 -12 -15 -6 16 24 144 83 292 130 329 32 25 25 24 62 8z m-1398 -120 c367
-433 933 -1163 1449 -1867 l113 -155 -88 86 c-49 47 -174 163 -279 256 -290
260 -414 399 -495 556 -19 37 -38 67 -42 67 -4 0 -15 -15 -24 -32 -27 -53 -43
-59 -74 -28 -27 27 -25 62 5 90 l25 23 -42 76 c-22 42 -152 245 -288 451 -237
360 -301 462 -350 560 -25 52 -22 49 90 -83z m-1429 -66 c8 -16 27 -50 42 -75
16 -25 27 -53 24 -63 -3 -14 -6 -12 -16 11 -11 27 -12 28 -34 12 -33 -24 -45
-29 -62 -22 -13 5 -12 11 6 46 12 22 18 47 15 55 -6 18 -47 35 -82 35 -15 0
-24 6 -24 15 0 12 13 15 58 15 54 0 59 -2 73 -29z m1359 20 c0 -14 -41 -41
-62 -41 -19 0 -22 8 -10 26 14 21 72 33 72 15z m-1530 -96 c13 -14 32 -25 42
-25 15 0 18 -5 13 -21 -4 -11 -10 -59 -15 -105 -7 -87 -25 -124 -59 -124 -13
0 -16 8 -13 41 3 33 -2 51 -32 99 -43 69 -44 89 -10 129 31 38 43 38 74 6z
m370 -106 c0 -30 -23 -54 -44 -46 -12 5 -12 13 2 56 15 44 19 49 30 34 6 -9
12 -29 12 -44z m810 16 c65 -23 127 -75 269 -227 91 -96 131 -146 133 -165 3
-24 11 -31 63 -48 59 -20 61 -22 102 -99 55 -102 68 -116 110 -116 36 0 73
-29 73 -58 0 -36 29 -62 71 -62 l39 0 0 -60 c0 -57 1 -60 24 -60 13 0 26 5 28
11 8 24 56 -19 245 -216 410 -428 927 -929 1266 -1224 59 -51 107 -95 107 -97
0 -14 -36 -77 -102 -177 -42 -64 -82 -135 -88 -157 -13 -47 -11 -48 -105 30
-86 71 -155 151 -335 390 -157 206 -361 454 -780 945 -669 785 -1006 1188
-1163 1393 -12 15 -9 15 43 -3z m-736 -29 c35 -74 7 -137 -39 -86 -15 17 -16
25 -5 70 7 27 16 50 20 50 4 0 15 -15 24 -34z m-156 1 c6 -29 -27 -57 -65 -57
-31 0 -34 2 -31 27 5 47 88 72 96 30z m-478 -132 c0 -20 -5 -25 -25 -25 -20 0
-25 5 -25 25 0 20 5 25 25 25 20 0 25 -5 25 -25z m1110 0 c0 -20 -5 -25 -25
-25 -20 0 -25 5 -25 25 0 20 5 25 25 25 20 0 25 -5 25 -25z m825 8 c32 -31 -4
-113 -57 -132 -22 -8 -28 -7 -33 8 -8 25 3 47 31 66 16 11 24 25 24 45 0 34
11 38 35 13z m-1262 -73 c38 13 37 13 37 -9 0 -11 4 -22 10 -26 5 -3 7 -12 3
-20 -7 -19 -49 -19 -103 0 -48 17 -136 20 -145 5 -10 -17 -25 -11 -25 9 0 12
11 23 30 30 20 6 30 17 30 30 0 20 2 20 66 -5 55 -20 72 -23 97 -14z m4512 6
c23 -17 13 -46 -15 -46 -37 0 -66 42 -37 53 21 9 33 7 52 -7z m-4869 -11 c-27
-21 -14 -63 26 -79 l32 -14 -45 -23 c-98 -51 -238 -22 -340 71 l-44 39 88 1
c81 0 89 -2 94 -20 4 -14 14 -20 35 -20 29 0 30 -2 25 -30 -12 -58 36 -32 73
40 19 38 32 48 60 49 11 0 11 -3 -4 -14z m2885 -88 c-11 -32 -27 -47 -52 -47
-5 0 2 23 17 51 17 35 29 48 36 41 7 -7 7 -21 -1 -45z m-1177 24 c10 -16 -12
-59 -33 -66 -24 -7 -61 10 -61 30 0 30 79 61 94 36z m-1131 -23 c3 -13 8 -32
12 -43 6 -19 1 -20 -62 -20 -37 0 -81 -4 -98 -8 l-30 -8 25 21 c51 41 114 80
131 80 9 0 19 -10 22 -22z m-411 -32 c45 -23 46 -24 31 -45 -17 -25 -39 -22
-85 11 -23 16 -26 23 -18 39 13 24 15 24 72 -5z m168 -49 c0 -21 -22 -37 -51
-37 -40 0 -46 19 -13 45 30 24 64 19 64 -8z m1443 -27 c-13 -12 -63 -21 -63
-12 0 16 25 40 45 44 21 4 33 -18 18 -32z m-1063 0 c0 -17 -57 -40 -99 -40
-22 0 -52 -5 -66 -12 -14 -6 -28 -9 -31 -5 -11 11 8 48 29 57 30 12 167 12
167 0z m-399 -65 c106 -12 140 -22 109 -33 -32 -11 -68 -59 -75 -100 -4 -23
-10 -42 -15 -42 -18 0 -60 64 -66 101 -7 41 -10 44 -33 30 -24 -15 -51 6 -51
40 0 19 4 28 11 24 6 -4 60 -13 120 -20z m2088 -149 c19 -39 20 -75 2 -77 -70
-9 -80 3 -52 66 11 24 17 46 13 49 -3 3 0 6 5 6 6 0 21 -20 32 -44z m-488 -16
c11 -7 19 -21 19 -38 0 -24 -4 -27 -35 -27 -34 0 -35 1 -35 38 0 40 13 47 51
27z m-866 -90 c-9 -15 -35 -12 -41 5 -4 8 -1 22 6 30 11 14 15 13 27 -5 8 -11
11 -25 8 -30z m255 -57 c0 -17 -10 -16 -32 4 -10 9 -18 25 -18 36 0 20 1 20
25 -3 14 -13 25 -29 25 -37z m-36 -72 c8 -12 -48 -31 -73 -24 -21 5 -26 14
-14 26 10 10 81 8 87 -2z"/>
<path d="M8204 4029 c-33 -9 -71 -45 -74 -69 -6 -42 0 -50 36 -50 49 0 94 45
94 94 0 38 -4 40 -56 25z"/>
<path d="M8413 3818 c-47 -12 -76 -59 -77 -123 0 -63 14 -84 81 -116 49 -24
138 -23 167 0 23 19 21 117 -3 161 -33 63 -103 95 -168 78z m81 -71 c23 -17
24 -83 3 -105 -14 -13 -19 -12 -46 16 -17 17 -31 41 -31 54 0 44 38 62 74 35z"/>
<path d="M3520 9014 c-14 -10 -45 -35 -68 -58 -69 -64 -77 -108 -27 -140 25
-16 25 -16 60 38 42 66 78 96 117 96 15 0 69 -20 118 -45 49 -25 92 -45 95
-45 16 0 0 34 -29 64 -25 24 -61 43 -128 66 -51 17 -98 34 -103 36 -6 2 -22
-3 -35 -12z"/>
<path d="M8905 6585 c-32 -15 -80 -53 -74 -59 8 -6 65 15 88 33 33 26 24 43
-14 26z"/>
<path d="M9364 6487 c-63 -30 -115 -91 -161 -187 -45 -92 -53 -155 -25 -190
l20 -25 65 135 c98 203 160 254 309 254 50 1 82 -4 90 -12 8 -8 13 -38 12 -80
0 -56 -7 -79 -37 -142 -35 -70 -47 -133 -29 -144 17 -10 72 35 93 76 43 83 33
278 -16 318 -11 9 -59 15 -143 17 -118 4 -131 2 -178 -20z"/>
<path d="M9270 5698 c-17 -28 -20 -51 -20 -143 -1 -113 -13 -170 -46 -206 -24
-26 -28 -25 -49 20 -33 75 -98 111 -116 65 -22 -60 0 -142 53 -191 24 -22 104
-62 125 -63 7 0 28 25 48 55 19 31 41 58 48 60 9 4 12 54 12 198 -1 239 -11
277 -55 205z"/>
<path d="M5190 5415 c0 -51 -5 -76 -21 -101 l-21 -34 61 0 c58 0 61 1 68 28 4
15 8 48 8 74 0 53 -21 82 -67 93 l-28 7 0 -67z"/>
<path d="M5150 5243 c0 -4 11 -43 25 -86 32 -101 32 -144 -1 -193 -25 -36 -25
-39 -8 -51 10 -7 37 -13 59 -13 l42 0 6 68 c12 125 9 165 -17 202 -22 33 -106
91 -106 73z"/>
<path d="M5400 5132 c0 -5 9 -17 20 -27 54 -49 47 -130 -19 -232 -46 -71 -57
-80 -66 -54 -3 11 -17 26 -30 35 -22 15 -25 14 -54 -13 -37 -34 -40 -67 -8
-77 12 -4 63 -8 113 -8 l91 -1 23 67 c17 50 21 79 17 113 -6 38 -4 45 11 45 9
-1 28 -7 42 -15 14 -8 33 -14 42 -15 15 0 16 4 7 28 -6 15 -8 46 -4 69 6 39
-6 65 -20 43 -11 -18 -41 -11 -83 20 -40 29 -82 40 -82 22z"/>
<path d="M5690 4971 c-42 -6 -46 -9 -60 -48 -13 -39 -13 -44 3 -60 16 -16 17
-16 17 11 0 15 5 37 11 48 10 19 17 20 90 14 66 -5 79 -4 79 8 0 32 -41 40
-140 27z"/>
<path d="M6187 4973 c-4 -3 -7 -21 -7 -40 0 -32 1 -33 44 -33 25 0 48 4 51 10
3 5 -9 23 -27 39 -33 31 -49 37 -61 24z"/>
<path d="M6055 4938 c-41 -22 -65 -52 -65 -80 0 -15 5 -28 10 -28 6 0 10 6 10
13 0 7 6 21 13 32 14 18 15 18 65 0 28 -10 54 -16 57 -14 3 3 -4 24 -15 47
-21 44 -39 51 -75 30z"/>
<path d="M5891 4906 c-7 -8 -23 -17 -38 -21 -23 -5 -25 -9 -19 -45 8 -52 -3
-51 -33 4 -27 53 -45 62 -77 41 -31 -20 -30 -27 6 -68 17 -19 30 -46 30 -60
l0 -25 41 16 c35 14 52 14 123 4 136 -20 171 -16 219 26 13 12 15 17 5 24 -21
12 -82 9 -128 -7 -57 -20 -82 -19 -114 6 -34 26 -34 63 -1 85 14 9 22 20 19
25 -8 13 -20 11 -33 -5z"/>
<path d="M5060 4875 c-25 -65 0 -193 41 -216 17 -9 22 -4 38 33 35 82 35 98
-1 153 -39 58 -64 68 -78 30z"/>
<path d="M6365 4844 c-46 -23 -49 -30 -35 -63 15 -36 10 -35 94 -16 87 20 116
32 144 58 l24 22 -24 6 c-47 14 -172 9 -203 -7z"/>
<path d="M6250 4832 c-23 -26 -19 -56 7 -60 17 -3 24 3 29 22 7 28 0 57 -13
55 -4 0 -15 -8 -23 -17z"/>
<path d="M6651 4837 c-16 -16 -14 -25 8 -37 22 -12 51 -4 51 14 0 19 -45 37
-59 23z"/>
<path d="M4956 4798 c-8 -32 -7 -48 2 -48 12 0 33 50 27 61 -10 16 -22 10 -29
-13z"/>
<path d="M6956 4804 c-17 -45 11 -104 50 -104 14 0 16 8 11 41 -5 37 -30 79
-47 79 -5 0 -11 -7 -14 -16z"/>
<path d="M6745 4781 c-48 -22 -88 -61 -62 -61 25 0 29 -16 16 -60 -16 -52 -1
-74 31 -45 18 16 25 17 54 7 42 -16 91 -15 103 1 9 10 22 53 24 74 0 5 -23 15
-53 23 -45 13 -55 21 -63 47 l-11 32 -39 -18z"/>
<path d="M5509 4764 c-10 -13 -10 -17 2 -25 36 -24 89 -23 89 1 0 6 -16 18
-35 26 -42 17 -40 17 -56 -2z"/>
<path d="M5705 4728 c10 -25 -26 -39 -79 -32 -37 6 -46 4 -46 -8 0 -21 17 -33
65 -48 57 -18 64 -28 36 -49 -27 -21 -21 -41 14 -41 14 0 35 14 54 35 35 41
36 46 17 83 -17 32 -70 85 -61 60z"/>
<path d="M5400 4705 c0 -8 5 -26 12 -41 11 -24 10 -28 -16 -49 -28 -22 -28
-23 -8 -34 32 -17 40 -14 58 22 22 42 21 42 39 27 16 -13 65 -6 65 10 0 6 -5
10 -10 10 -6 0 -33 16 -61 35 -55 37 -79 44 -79 20z"/>
<path d="M5866 4691 c5 -26 2 -32 -26 -46 -23 -12 -29 -20 -22 -27 14 -14 88
6 118 31 20 16 44 52 44 65 0 3 -27 6 -60 6 l-59 0 5 -29z"/>
<path d="M6490 4702 c-20 -14 -44 -17 -137 -15 -111 3 -135 -4 -90 -24 21 -11
21 -11 -15 -27 -37 -16 -68 -41 -68 -55 0 -4 39 -16 86 -26 71 -15 92 -16 125
-6 49 15 54 26 34 74 -19 47 -19 47 10 47 33 0 95 26 95 39 0 15 -11 13 -40
-7z"/>
<path d="M6576 4701 c-11 -12 -16 -31 -14 -53 2 -27 7 -33 27 -33 31 0 49 45
32 81 -13 29 -22 30 -45 5z"/>
<path d="M5263 4674 c-9 -24 11 -38 36 -25 25 14 27 27 5 35 -25 9 -34 7 -41
-10z"/>
<path d="M10824 4633 c7 -58 38 -123 74 -156 11 -10 48 -33 82 -51 l63 -34 35
24 c44 30 75 30 187 -1 67 -19 91 -22 94 -13 2 7 19 26 38 42 19 17 33 39 33
52 0 20 -7 24 -47 29 -148 21 -353 79 -481 137 -35 15 -69 28 -74 28 -7 0 -8
-20 -4 -57z"/>
<path d="M6470 4604 c-6 -14 -10 -27 -10 -30 0 -10 124 1 127 12 4 12 -59 44
-88 44 -12 0 -23 -10 -29 -26z"/>
<path d="M6053 4610 c-50 -5 -96 -11 -102 -15 -12 -7 -14 -35 -5 -59 5 -13 8
-14 28 -1 21 14 26 13 67 -15 30 -20 56 -30 83 -30 37 0 38 1 30 28 -5 15 -8
44 -8 65 0 20 0 36 -1 36 0 -1 -41 -5 -92 -9z"/>
<path d="M9600 3471 c0 -31 12 -43 140 -144 49 -38 58 -51 80 -117 54 -161
140 -272 351 -456 92 -80 99 -89 120 -151 26 -79 56 -113 98 -113 29 0 30 2
24 33 -3 17 -19 61 -36 96 -24 53 -61 97 -211 250 -191 197 -233 255 -266 372
-13 50 -24 64 -104 138 -126 117 -196 150 -196 92z"/>
<path d="M10829 3450 c-30 -5 -118 -25 -195 -44 -76 -19 -186 -40 -244 -46
-119 -13 -169 -24 -222 -51 -34 -17 -86 -75 -76 -85 3 -2 31 -9 64 -15 101
-19 179 -4 424 77 255 85 349 103 442 86 90 -17 545 -243 615 -306 76 -69 114
-150 121 -262 l5 -87 -47 32 c-190 131 -460 149 -825 55 -117 -31 -227 -81
-266 -123 -37 -39 -28 -47 65 -57 98 -11 194 8 400 78 182 61 187 62 296 63
l112 0 123 -62 c131 -65 275 -156 347 -218 67 -58 83 -100 93 -242 9 -124 20
-167 58 -213 16 -20 22 -23 33 -12 10 10 10 19 0 44 -14 37 -9 48 22 48 16 0
29 -11 41 -33 32 -59 3 -113 -87 -162 -43 -24 -65 -30 -115 -29 -82 1 -147 34
-328 169 -77 58 -158 111 -180 119 -38 12 -44 12 -85 -9 -44 -22 -152 -59
-261 -90 -55 -15 -57 -17 -124 -116 -84 -124 -310 -429 -419 -564 -246 -306
-350 -425 -409 -466 -34 -23 -132 -98 -217 -165 -313 -245 -439 -320 -695
-412 -77 -28 -189 -74 -250 -102 -228 -108 -316 -126 -735 -155 -320 -22 -568
-63 -385 -64 44 0 185 -8 313 -18 343 -25 423 -12 712 120 84 38 239 96 370
137 245 78 384 138 506 220 299 201 654 539 873 832 35 46 104 155 155 244 99
173 158 256 228 320 60 56 110 83 265 145 l133 52 67 -65 c178 -170 469 -265
660 -214 98 26 195 89 178 115 -11 18 -44 12 -83 -14 -42 -29 -55 -31 -72 -10
-10 12 -9 15 7 15 33 0 72 38 79 76 8 45 -5 76 -87 199 -74 112 -98 167 -108
239 -6 49 -7 50 -116 133 -60 47 -129 103 -152 125 l-43 41 0 94 c0 52 -5 125
-11 163 l-12 69 -126 94 c-213 158 -370 245 -521 286 -86 24 -230 34 -311 21z"/>
<path d="M12490 1960 c0 -32 -39 -106 -80 -153 -45 -51 -130 -98 -220 -123
-98 -27 -307 -25 -424 4 -105 26 -237 86 -287 130 -44 38 -49 39 -49 9 0 -28
14 -48 80 -114 31 -31 50 -59 48 -69 -7 -41 -150 -44 -229 -6 -41 20 -114 87
-198 182 l-30 35 0 -40 c2 -145 147 -273 349 -310 33 -6 41 -1 111 58 l75 64
46 -18 c92 -36 205 -52 323 -46 282 15 492 144 549 337 23 77 22 80 -24 80
-33 0 -40 -3 -40 -20z"/>
<path d="M7990 1672 c0 -33 122 -168 193 -214 40 -26 50 -29 58 -17 28 45 -6
112 -83 163 -53 35 -168 81 -168 68z"/>
</g>
</svg>
