<?xml version="1.0" standalone="no"?>
<!DOCTYPE svg PUBLIC "-//W3C//DTD SVG 20010904//EN"
 "http://www.w3.org/TR/2001/REC-SVG-20010904/DTD/svg10.dtd">
<svg version="1.0" xmlns="http://www.w3.org/2000/svg"
 width="1280.000000pt" height="357.000000pt" viewBox="0 0 1280.000000 357.000000"
 preserveAspectRatio="xMidYMid meet">
<g transform="translate(0.000000,357.000000) scale(0.100000,-0.100000)"
fill="#000000" stroke="none">
<path d="M1485 3563 c-409 -50 -740 -207 -1007 -479 -176 -179 -289 -353 -371
-574 -268 -719 -22 -1479 637 -1971 594 -444 1452 -596 2541 -448 878 118
1811 424 2470 810 248 145 482 315 594 433 l34 35 101 -97 c359 -345 1067
-714 1806 -940 682 -209 1276 -312 1890 -329 826 -22 1490 175 1981 585 331
278 539 627 616 1035 26 141 24 427 -5 572 -33 167 -75 287 -152 441 -259 517
-752 846 -1340 893 -111 9 -222 2 -180 -11 8 -3 62 -20 119 -38 342 -110 592
-408 651 -772 17 -106 8 -282 -19 -388 -80 -304 -308 -556 -604 -668 -146 -55
-259 -75 -427 -75 -266 0 -491 59 -790 208 -203 101 -326 180 -765 490 -587
415 -935 606 -1323 725 -550 168 -1084 115 -1445 -144 l-78 -56 -83 64 c-254
193 -543 276 -924 263 -230 -8 -411 -43 -653 -126 -356 -123 -665 -298 -1244
-705 -349 -246 -382 -268 -495 -338 -300 -185 -561 -290 -825 -334 -145 -23
-375 -15 -506 19 -203 53 -346 133 -485 271 -100 101 -171 206 -216 324 -129
329 -73 695 148 970 125 156 333 288 522 332 28 7 52 16 52 21 0 9 -161 10
-225 2z"/>
</g>
</svg>
